<?xml version="1.0" encoding="UTF-8"?>
<svg id="Layer_2" data-name="Layer 2" xmlns="http://www.w3.org/2000/svg" viewBox="0 0 632.58 117.34">
  <g id="_Layer_" data-name="&amp;lt;Layer&amp;gt;">
    <g>
      <path d="m115.22,91.49c-2.42-6.27-3.67-12.98-3.59-19.76-.07-6.74,1.17-13.49,3.59-19.76,1.61-4.14,3.81-8.03,6.45-11.47-7.95-8.76-19.57-13.93-33.32-13.93h-.4c-7.33,0-14.51,2.05-20.78,5.86V.08h-29.07v117.25h21.74l2.79-9.13c7.22,5.97,16.35,9.2,25.73,9.13,13.86,0,25.55-5.28,33.54-14.15-2.75-3.52-5.02-7.44-6.67-11.69Zm-30.79-.18c-10.45,0-18.95-8.39-19.1-18.84-.15-10.52,8.28-19.21,18.8-19.35,10.56-.15,19.24,8.28,19.35,18.84.04.33.04.62.04.95-.22,10.37-8.76,18.58-19.1,18.4Z"/>
      <rect x=".55" y="37.65" width="27.84" height="79.67"/>
      <path d="m14.58,0C6.53,0,0,6.53,0,14.58s6.53,14.58,14.58,14.58,14.58-6.53,14.58-14.58S22.63,0,14.58,0Z"/>
      <path d="m632.58,71.7c0-24.67-18.77-43.98-45.89-43.98-14.66,0-27.12,5.86-35.33,15.47-5.5-7.7-14.44-12.21-23.97-11.99-10.23-.15-19.98,4.33-26.5,12.21-5.53-8.06-14.77-12.76-24.56-12.57-9.64-.04-18.84,4.11-25.18,11.36l-4.18-9.05-20.82-.15v84.3h29.07l.29-46.15c.07-10.45,4.51-16.02,12.54-15.98,6.19.04,9.46,4.58,9.38,13.09l-.11,15.91.04.04-.22,33.1h28.81l.29-45.78c.07-10.59,4.29-16.05,12.43-15.98,6.3.04,9.57,4.29,9.53,13.09l-.37,48.68h29.62l.04-5.5.04-5.28c4.25,3.59,9.2,6.41,14.66,8.28,24.12,8.25,50.33-4.62,58.54-28.7h-28.81c-3.26,5.2-9.09,8.21-15.21,7.88-8.69.51-16.24-5.94-17.15-14.62h62.42c.4-2.53.59-5.09.62-7.66Zm-62.53-8.36c1.61-7.81,8.65-13.31,16.64-12.94,8.14-.44,15.43,4.98,17.34,12.94h-33.98Z"/>
      <path d="m383.74,28.63c-8.39.04-16.49,2.93-22.98,8.21V.08h-29.69v31.12h-18.95V6.02h-6.12l-25.4,27.09c4.03,3.23,7.51,7.15,10.3,11.69,3.26,5.28,5.42,11.25,6.34,17.59.99,6.71.7,13.64-.88,20.31-1.58,7.51-4.8,14.55-9.27,20.6,4.87,8.94,14.18,14,26.72,14h46.95v-46c0-11.07,5.57-17.41,14.55-17.41,7.73,0,11.25,5.06,11.25,14.99v48.42h29.65v-51.86c0-22.32-12.68-36.8-32.47-36.8Zm-52.67,62.71h-8.21c-.59.07-1.14.07-1.69.04-5.02-.44-8.76-4.87-8.32-9.93v-27.42h18.22v37.31Z"/>
      <path d="m289.13,53c-2.3-5.48-5.72-10.43-10.04-14.52-4.41-4.16-9.61-7.39-15.29-9.51-6.19-2.31-12.75-3.46-19.35-3.42-13.74-.4-27.01,5-36.58,14.86l18.14,28.53c.64-9.63,8.8-17.03,18.45-16.73.55-.02,1.1,0,1.65.03,9.98.63,17.55,9.22,16.93,19.2.04.55.05,1.11.03,1.67-.29,9.99-8.61,17.85-18.6,17.56-6.4.2-12.42-3.04-15.77-8.5l-.07.04-21.87-34.37c-.55-.93-1.12-1.84-1.73-2.73l-.44-.69s-.02.03-.03.05c-1.55-2.15-3.3-4.16-5.23-5.99-4.41-4.16-9.61-7.39-15.29-9.51-6.19-2.31-12.75-3.46-19.35-3.41-6.62-.05-13.19,1.11-19.39,3.41-5.68,2.12-10.87,5.36-15.28,9.52-4.31,4.09-7.72,9.04-10.02,14.52-2.42,5.84-3.64,12.11-3.6,18.43-.04,6.31,1.18,12.56,3.6,18.39,2.3,5.48,5.71,10.42,10.02,14.51,4.41,4.17,9.6,7.41,15.28,9.54,6.2,2.32,12.77,3.48,19.39,3.44,13.88.4,27.27-5.13,36.83-15.21l-18.37-28.39c-.52,9.73-8.73,17.26-18.46,16.95-.56.02-1.11,0-1.67-.03-9.97-.63-17.54-9.23-16.91-19.2-.04-.55-.04-1.11-.03-1.67.28-9.99,8.61-17.86,18.6-17.57,6.42-.19,12.45,3.07,15.78,8.56l.12-.08,19.95,30.84c2.26,4.8,5.4,9.15,9.26,12.81,4.41,4.17,9.6,7.41,15.28,9.54,6.2,2.32,12.77,3.48,19.39,3.44,27.98,0,48.29-19.3,48.29-45.89.04-6.32-1.18-12.59-3.61-18.43Z"/>
    </g>
  </g>
</svg>